<?xml version="1.0" encoding="UTF-8"?>
<svg xmlns="http://www.w3.org/2000/svg" viewBox="0 0 197.89 197.89">
  <defs>
    <style>
      .cls-1 {
        fill: #fff;
        stroke: #231f20;
        stroke-miterlimit: 10;
      }

      .cls-2 {
        fill: #ec008c;
      }

      .cls-3 {
        isolation: isolate;
      }

      .cls-4 {
        mix-blend-mode: multiply;
      }

      .cls-5 {
        fill: #fff200;
      }

      .cls-6 {
        fill: #00aeef;
      }
    </style>
  </defs>
  <g class="cls-3">
    <g id="Layer_1">
      <rect class="cls-1" x=".5" y=".5" width="196.89" height="196.89" rx="15.06" ry="15.06"/>
      <g>
        <g class="cls-4">
          <path class="cls-5" d="M67.95,155.54h-14.61v-51.22s-42.82,0-42.82,0v-12.09h42.82s0-37.61,0-37.61H7v-12.26h60.95v113.18Z"/>
          <path class="cls-5" d="M54,155.54V42.36h15.95l36.27,57.26c8.4,13.26,14.94,25.19,20.32,36.77l.33-.17c-1.35-15.11-1.68-28.88-1.68-46.51v-47.36h13.77v113.18h-14.77l-35.93-57.43c-7.9-12.6-15.45-25.53-21.16-37.78l-.51.17c.84,14.27,1.18,27.87,1.18,46.68v48.36h-13.77Z"/>
          <path class="cls-5" d="M124.23,42.36h60.95v12.26h-46.34v37.61h42.82v12.09h-42.82v51.22h-14.61V42.36Z"/>
        </g>
        <g class="cls-4">
          <path class="cls-2" d="M70.81,155.54h-14.61v-51.22s-42.82,0-42.82,0v-12.09h42.82s0-37.61,0-37.61H9.85v-12.26h60.95v113.18Z"/>
          <path class="cls-2" d="M56.86,155.54V42.36h15.95l36.27,57.26c8.4,13.26,14.94,25.19,20.32,36.77l.33-.17c-1.35-15.11-1.68-28.88-1.68-46.51v-47.36h13.77v113.18h-14.77l-35.93-57.43c-7.9-12.6-15.45-25.53-21.16-37.78l-.51.17c.84,14.27,1.18,27.87,1.18,46.68v48.36h-13.77Z"/>
          <path class="cls-2" d="M127.09,42.36h60.95v12.26h-46.34v37.61h42.82v12.09h-42.82v51.22h-14.61V42.36Z"/>
        </g>
        <g class="cls-4">
          <path class="cls-6" d="M73.66,155.54h-14.61v-51.22s-42.82,0-42.82,0v-12.09h42.82s0-37.61,0-37.61H12.71v-12.26h60.95v113.18Z"/>
          <path class="cls-6" d="M59.72,155.54V42.36h15.95l36.27,57.26c8.4,13.26,14.94,25.19,20.32,36.77l.33-.17c-1.35-15.11-1.68-28.88-1.68-46.51v-47.36h13.77v113.18h-14.77l-35.93-57.43c-7.9-12.6-15.45-25.53-21.16-37.78l-.51.17c.84,14.27,1.18,27.87,1.18,46.68v48.36h-13.77Z"/>
          <path class="cls-6" d="M129.94,42.36h60.95v12.26h-46.34v37.61h42.82v12.09h-42.82v51.22h-14.61V42.36Z"/>
        </g>
      </g>
    </g>
  </g>
</svg>