<?xml version="1.0" encoding="UTF-8"?>
<svg xmlns="http://www.w3.org/2000/svg" viewBox="0 0 48 72.06">
  <defs>
    <style>
      .cls-1 {
        fill: #fff;
      }

      .cls-2 {
        fill: #ec008c;
      }

      .cls-3 {
        isolation: isolate;
      }

      .cls-4 {
        mix-blend-mode: multiply;
      }

      .cls-5 {
        fill: #fff200;
      }

      .cls-6 {
        fill: #00aeef;
      }
    </style>
  </defs>
  <g class="cls-3">
    <g id="Layer_1">
      <rect class="cls-1" y="5.31" width="48" height="48" rx="13.96" ry="13.96"/>
      <g>
        <g class="cls-4">
          <path class="cls-2" d="M4.08,41.98l1.94-5.68c1.13,2.26,2.53,3.82,3.98,3.82s2.1-1.36,2.1-3.15c0-2.63-.89-3.27-2.3-4.72l-1.95-2.03c-1.66-1.54-3.17-4.65-3.17-9.97,0-6.06,2.23-10.9,5.48-10.9,1.8,0,3.62,1.65,4.97,4.79l-1.71,5.22c-1.05-1.85-1.99-2.86-3.45-2.86-1.11,0-1.87,1.13-1.87,3.27s1,3,2.44,4.32l1.83,1.9c1.96,1.8,3.19,4.78,3.19,9.94,0,6.08-2.09,11.35-5.79,11.35-2.02,0-4.11-1.81-5.69-5.28Z"/>
          <path class="cls-2" d="M16.79,10h3.51l.44,19.48c.04,3.13.06,5.89.08,9.18h.09c.21-3.28.49-6.09.73-9.16l1.01-10.21h2.17l.94,10.21c.24,2.99.51,5.8.73,9.16h.09c.03-3.36.04-6.13.08-9.16l.43-19.49h3.29l-1.86,36.59h-3.61l-.89-11.33c-.18-2.33-.35-4.78-.4-6.99h-.07c-.09,2.2-.22,4.66-.4,6.99l-.86,11.33h-3.53l-1.98-36.59Z"/>
          <path class="cls-2" d="M32.58,10.01h9.91v6.94h-6.53v7.33h5.55v6.94h-5.55v8.42h6.76v6.94h-10.14V10.01Z"/>
        </g>
        <g class="cls-4">
          <path class="cls-6" d="M5.08,41.98l1.94-5.68c1.13,2.26,2.53,3.82,3.98,3.82s2.1-1.36,2.1-3.15c0-2.63-.89-3.27-2.3-4.72l-1.95-2.03c-1.66-1.54-3.17-4.65-3.17-9.97,0-6.06,2.23-10.9,5.48-10.9,1.8,0,3.62,1.65,4.97,4.79l-1.71,5.22c-1.05-1.85-1.99-2.86-3.45-2.86-1.12,0-1.87,1.13-1.87,3.27s1,3,2.44,4.32l1.83,1.9c1.96,1.8,3.19,4.78,3.19,9.94,0,6.08-2.08,11.35-5.79,11.35-2.02,0-4.11-1.81-5.69-5.28Z"/>
          <path class="cls-6" d="M17.79,10h3.51l.44,19.48c.04,3.13.06,5.89.08,9.18h.08c.21-3.28.49-6.09.73-9.16l1.01-10.21h2.17l.94,10.21c.24,2.99.51,5.8.73,9.16h.09c.03-3.36.04-6.13.08-9.16l.43-19.49h3.29l-1.86,36.59h-3.61l-.89-11.33c-.18-2.33-.35-4.78-.4-6.99h-.07c-.09,2.2-.22,4.66-.4,6.99l-.86,11.33h-3.53l-1.98-36.59Z"/>
          <path class="cls-6" d="M33.58,10.01h9.91v6.94h-6.53v7.33h5.55v6.94h-5.55v8.42h6.76v6.94h-10.14V10.01Z"/>
        </g>
        <g class="cls-4">
          <path class="cls-5" d="M3.08,41.98l1.94-5.68c1.13,2.26,2.53,3.82,3.98,3.82s2.1-1.36,2.1-3.15c0-2.63-.89-3.27-2.3-4.72l-1.95-2.03c-1.66-1.54-3.17-4.65-3.17-9.97,0-6.06,2.23-10.9,5.48-10.9,1.8,0,3.62,1.65,4.97,4.79l-1.71,5.22c-1.05-1.85-1.99-2.86-3.45-2.86-1.11,0-1.87,1.13-1.87,3.27s1,3,2.44,4.32l1.83,1.9c1.96,1.8,3.19,4.78,3.19,9.94,0,6.08-2.09,11.35-5.79,11.35-2.02,0-4.11-1.81-5.69-5.28Z"/>
          <path class="cls-5" d="M15.79,10h3.51l.44,19.48c.04,3.13.06,5.89.08,9.18h.09c.21-3.28.49-6.09.73-9.16l1.01-10.21h2.17l.94,10.21c.24,2.99.51,5.8.73,9.16h.09c.03-3.36.04-6.13.08-9.16l.43-19.49h3.29l-1.86,36.59h-3.61l-.89-11.33c-.18-2.33-.35-4.78-.4-6.99h-.07c-.09,2.2-.22,4.66-.4,6.99l-.86,11.33h-3.53l-1.98-36.59Z"/>
          <path class="cls-5" d="M31.58,10.01h9.91v6.94h-6.53v7.33h5.55v6.94h-5.55v8.42h6.76v6.94h-10.14V10.01Z"/>
        </g>
      </g>
    </g>
  </g>
</svg>